<svg id="Layer_1" data-name="Layer 1" xmlns="http://www.w3.org/2000/svg" xmlns:xlink="http://www.w3.org/1999/xlink" viewBox="0 0 78.56 86.32"><title>Kapena</title><defs><style>.cls-1{fill:none;}.cls-2{fill:#e6c25e;}.cls-3{fill:#1d1d1b;}.cls-4{clip-path:url(#clip-path);}</style><clipPath id="clip-path"><rect class="cls-1" width="78.56" height="86.32"/></clipPath></defs><rect class="cls-2" x="17.1" y="14" width="47.46" height="58.31"/><polygon class="cls-3" points="32.13 34.13 29.26 34.13 29.26 20.12 32.13 20.12 32.13 26.21 36.1 20.12 39.44 20.12 34.9 26.86 39.44 34.13 36.06 34.13 32.13 27.89 32.13 34.13"/><path class="cls-3" d="M43.11,31.71l-.84,2.42h-3l4.83-14h3.59l4.79,14H49.29l-.8-2.42Zm2.69-8.15-1.95,5.8h3.88Z"/><g class="cls-4"><path class="cls-3" d="M13.23,50.13H10.36v-14h4.47c3.32,0,5.18,1.62,5.18,4.47s-1.91,4.73-5,4.73H13.23ZM14.47,43c1.66,0,2.63-.8,2.63-2.21s-1-2.25-2.57-2.25h-1.3V43Z"/><polygon class="cls-3" points="24.55 41.92 29.46 41.92 29.46 44.27 24.55 44.27 24.55 47.77 29.46 47.77 29.46 50.13 21.68 50.13 21.68 36.12 29.46 36.12 29.46 38.47 24.55 38.47 24.55 41.92"/><polygon class="cls-3" points="34.76 50.13 31.88 50.13 31.88 36.12 34.72 36.12 40.57 44.85 40.57 36.12 43.45 36.12 43.45 50.13 40.64 50.13 34.76 41.27 34.76 50.13"/><path class="cls-3" d="M19.11,63.71l-.84,2.42h-3l4.83-14h3.59l4.78,14H25.28l-.79-2.42Zm2.69-8.15-1.95,5.8h3.88Z"/></g></svg>